<svg width="14" height="21" viewBox="0 0 14 21" fill="none" xmlns="http://www.w3.org/2000/svg">
<path d="M7 14.975C8.65 13.6417 9.896 12.3583 10.738 11.125C11.5793 9.89167 12 8.73333 12 7.65C12 6.71667 11.8293 5.92067 11.488 5.262C11.146 4.604 10.725 4.07067 10.225 3.662C9.725 3.254 9.18333 2.95833 8.6 2.775C8.01667 2.59167 7.48333 2.5 7 2.5C6.51667 2.5 5.98333 2.59167 5.4 2.775C4.81667 2.95833 4.275 3.254 3.775 3.662C3.275 4.07067 2.85433 4.604 2.513 5.262C2.171 5.92067 2 6.71667 2 7.65C2 8.73333 2.42067 9.89167 3.262 11.125C4.104 12.3583 5.35 13.6417 7 14.975ZM7 17.5C4.65 15.7667 2.89567 14.0833 1.737 12.45C0.579 10.8167 0 9.21667 0 7.65C0 6.46667 0.212667 5.429 0.638 4.537C1.06267 3.64567 1.60833 2.9 2.275 2.3C2.94167 1.7 3.69167 1.25 4.525 0.95C5.35833 0.65 6.18333 0.5 7 0.5C7.81667 0.5 8.64167 0.65 9.475 0.95C10.3083 1.25 11.0583 1.7 11.725 2.3C12.3917 2.9 12.9377 3.64567 13.363 4.537C13.7877 5.429 14 6.46667 14 7.65C14 9.21667 13.4207 10.8167 12.262 12.45C11.104 14.0833 9.35 15.7667 7 17.5ZM7 9.5C7.55 9.5 8.021 9.304 8.413 8.912C8.80433 8.52067 9 8.05 9 7.5C9 6.95 8.80433 6.479 8.413 6.087C8.021 5.69567 7.55 5.5 7 5.5C6.45 5.5 5.97933 5.69567 5.588 6.087C5.196 6.479 5 6.95 5 7.5C5 8.05 5.196 8.52067 5.588 8.912C5.97933 9.304 6.45 9.5 7 9.5ZM0 20.5V18.5H14V20.5H0Z" fill="black"/>
</svg>
